HIERARCHY
ROOT Hips
{
	OFFSET 0.000000 0.000000 0.000000
	CHANNELS 6 Xposition Yposition Zposition Zrotation Yrotation Xrotation 
	JOINT LeftUpLeg_virtual
	{
		OFFSET 0.000000 0.000000 0.000000
		CHANNELS 3 Zrotation Yrotation Xrotation
		JOINT LeftUpLeg
		{
			OFFSET 8.479694 -4.795517 -0.379053
			CHANNELS 3 Zrotation Yrotation Xrotation
			JOINT LeftLeg
			{
				OFFSET 0.485052 -32.551468 0.112863
				CHANNELS 3 Zrotation Yrotation Xrotation
				JOINT LeftFoot
				{
					OFFSET 0.438033 -32.635670 -3.012641
					CHANNELS 3 Zrotation Yrotation Xrotation
					JOINT LeftToeBase
					{
						OFFSET 0.970169 -13.225353 11.864223
						CHANNELS 3 Zrotation Yrotation Xrotation
						End Site
						{
							OFFSET 0.000000 0.000000 0.000000
						}
					}
				}
			}
		}
	}
	JOINT RightUpLeg_virtual
	{
		OFFSET 0.000000 0.000000 0.000000
		CHANNELS 3 Zrotation Yrotation Xrotation
		JOINT RightUpLeg
		{
			OFFSET -8.479694 -4.795517 -0.379053
			CHANNELS 3 Zrotation Yrotation Xrotation
			JOINT RightLeg
			{
				OFFSET -0.484100 -32.551483 0.112903
				CHANNELS 3 Zrotation Yrotation Xrotation
				JOINT RightFoot
				{
					OFFSET -0.438985 -32.635651 -3.012681
					CHANNELS 3 Zrotation Yrotation Xrotation
					JOINT RightToeBase
					{
						OFFSET -0.970169 -13.225354 11.864223
						CHANNELS 3 Zrotation Yrotation Xrotation
						End Site
						{
							OFFSET 0.000000 0.000000 0.000000
						}
					}
				}
			}
		}
	}
	JOINT Spine_virtual
	{
		OFFSET 0.000000 0.000000 0.000000
		CHANNELS 3 Zrotation Yrotation Xrotation
		JOINT Spine
		{
			OFFSET 0.000000 7.722015 1.166203
			CHANNELS 3 Zrotation Yrotation Xrotation
			JOINT Spine1
			{
				OFFSET 0.000000 12.024086 0.248766
				CHANNELS 3 Zrotation Yrotation Xrotation
				JOINT Spine2
				{
					OFFSET -0.000000 11.503036 -0.491240
					CHANNELS 3 Zrotation Yrotation Xrotation
					JOINT Neck_virtual
					{
						OFFSET 0.000000 0.000000 0.000000
						CHANNELS 3 Zrotation Yrotation Xrotation
						JOINT Neck
						{
							OFFSET 0.000000 18.430687 -3.123054
							CHANNELS 3 Zrotation Yrotation Xrotation
							JOINT Head
							{
								OFFSET -0.000000 9.051071 1.034021
								CHANNELS 3 Zrotation Yrotation Xrotation
								End Site
								{
									OFFSET 0.000000 0.000000 0.000000
								}
							}
						}
					}
					JOINT LeftShoulder_virtual
					{
						OFFSET 0.000000 0.000000 0.000000
						CHANNELS 3 Zrotation Yrotation Xrotation
						JOINT LeftShoulder
						{
							OFFSET 6.197824 13.665230 -4.064723
							CHANNELS 3 Zrotation Yrotation Xrotation
							JOINT LeftArm
							{
								OFFSET 7.778132 -0.187073 -1.709282
								CHANNELS 3 Zrotation Yrotation Xrotation
								JOINT LeftForeArm
								{
									OFFSET 21.954697 0.000000 -2.041093
									CHANNELS 3 Zrotation Yrotation Xrotation
									JOINT LeftHand
									{
										OFFSET 22.992908 0.000000 -0.870901
										CHANNELS 3 Zrotation Yrotation Xrotation
										End Site
										{
											OFFSET 0.000000 0.000000 0.000000
										}
									}
								}
							}
						}
					}
					JOINT RightShoulder_virtual
					{
						OFFSET 0.000000 0.000000 0.000000
						CHANNELS 3 Zrotation Yrotation Xrotation
						JOINT RightShoulder
						{
							OFFSET -6.197824 13.665230 -4.064723
							CHANNELS 3 Zrotation Yrotation Xrotation
							JOINT RightArm
							{
								OFFSET -7.778132 -0.187073 -1.709282
								CHANNELS 3 Zrotation Yrotation Xrotation
								JOINT RightForeArm
								{
									OFFSET -21.954697 0.000000 -2.041093
									CHANNELS 3 Zrotation Yrotation Xrotation
									JOINT RightHand
									{
										OFFSET -22.992908 0.000000 -0.870901
										CHANNELS 3 Zrotation Yrotation Xrotation
										End Site
										{
											OFFSET 0.000000 0.000000 0.000000
										}
									}
								}
							}
						}
					}
				}
			}
		}
	}
}
MOTION
Frames: 7
Frame Time: 0.033333
51.065010 80.847908 -31.481600 -179.973449 -8.202139 179.695351 -6.316167 1.208786 9.596575 0.151586 -2.984567 -25.178792 10.322169 8.712935 31.795490 0.609508 -6.510585 -9.585767 0.000000 0.000000 0.000000 -1.897649 -0.172298 10.002652 -2.779444 -0.433544 -30.253548 -2.473939 3.307661 33.500391 12.193769 13.384434 -1.754520 0.000000 0.000000 0.000000 -2.329827 2.594677 -4.060154 0.008305 -0.068136 -3.085957 -1.061572 -2.244488 10.920866 -0.008596 -0.075237 -0.045472 -1.193126 -0.727879 12.610177 0.603017 -1.796822 2.599359 0.000000 0.000000 0.000000 0.296121 -0.605253 9.572071 -1.666409 -5.449560 2.863148 -56.538725 -14.633866 14.252013 -176.486255 -84.528720 -160.712152 0.000000 0.000000 0.000000 -4.079264 1.382789 8.821851 29.049522 5.777214 5.665243 50.452275 16.030404 8.198550 -171.171111 71.731377 -179.686936 0.000000 0.000000 0.000000 
50.891037 80.875610 -32.503136 -179.851162 -9.986198 179.702933 -6.318169 0.964941 9.572771 0.560537 -3.268079 -24.657085 9.944370 8.492440 32.199680 0.748813 -7.444296 -9.748975 0.000000 0.000000 0.000000 -2.364706 -0.011687 10.268259 -3.664765 2.047076 -29.521590 -2.460959 4.185598 29.758117 14.371270 14.066290 -0.419177 0.000000 0.000000 0.000000 -2.335379 2.409825 -4.162009 -0.016474 -0.089940 -3.378031 -1.028799 -2.349910 10.961444 -0.014922 -0.129379 -0.016002 -1.190122 -0.990269 12.571989 0.908866 -1.876293 2.848915 0.000000 0.000000 0.000000 0.294261 -0.754659 9.566868 -1.626004 -5.611492 3.191232 -55.939625 -16.459801 14.955121 -172.950075 -84.377159 -164.367847 0.000000 0.000000 0.000000 -4.121738 1.285452 8.725548 29.302423 5.959512 5.593418 50.229918 16.401926 9.105268 -171.534710 71.272669 179.985539 0.000000 0.000000 0.000000 
50.733757 80.901382 -33.502949 -179.709845 -11.606653 179.660790 -6.295244 0.768884 9.536904 0.872251 -3.448685 -24.038870 9.738421 8.223111 32.569351 0.810066 -8.199877 -9.766079 0.000000 0.000000 0.000000 -2.691195 0.661280 10.468692 -4.251100 3.611714 -28.528517 -2.191478 5.121540 28.803591 15.624876 14.290482 -0.381735 0.000000 0.000000 0.000000 -2.281525 2.138829 -4.303036 0.018853 -0.109661 -3.593959 -0.999051 -2.468426 11.022962 -0.009209 -0.200078 -0.024523 -1.180487 -1.051581 12.545368 1.135067 -1.922780 3.037644 0.000000 0.000000 0.000000 0.303911 -0.661326 9.614621 -1.685113 -5.674135 3.461674 -55.502438 -17.854389 15.329760 -168.538784 -84.204006 -168.882438 0.000000 0.000000 0.000000 -4.162036 1.257986 8.692783 29.607927 6.179615 5.701078 49.897001 16.810455 9.687434 -171.731597 70.897746 179.925051 0.000000 0.000000 0.000000 
50.655449 80.930168 -34.484711 -179.699668 -12.737830 179.857049 -6.278603 0.586623 9.410978 1.201559 -3.511327 -23.483138 9.484520 8.183536 32.757652 1.203518 -8.941672 -9.722352 0.000000 0.000000 0.000000 -2.831072 0.741368 10.165192 -4.588449 5.042245 -27.798037 -1.727235 6.072281 29.998433 16.350739 14.197021 -0.648937 0.000000 0.000000 0.000000 -2.298697 2.030951 -4.598924 0.025924 -0.013527 -3.934310 -1.028079 -2.458142 11.010245 -0.022590 -0.306460 0.024563 -1.159827 -1.109979 12.596443 1.296292 -1.974715 3.158533 0.000000 0.000000 0.000000 0.374385 -0.896850 9.704700 -1.773017 -5.582619 3.825537 -55.100465 -18.845269 15.581731 -168.043622 -84.099204 -169.494272 0.000000 0.000000 0.000000 -4.221684 1.226868 8.642565 30.015078 6.195495 5.663164 49.640476 16.967667 10.088769 -171.633146 70.511902 -179.759651 0.000000 0.000000 0.000000 
50.684517 80.972336 -35.463982 -179.746318 -13.188377 179.981714 -6.294692 0.410732 9.339116 1.510200 -3.502879 -22.852823 9.191548 8.090437 32.888983 1.483177 -9.431979 -9.638599 0.000000 0.000000 0.000000 -2.790192 0.338084 10.032582 -4.468622 5.580320 -27.096272 -1.498077 6.322176 30.394547 16.240202 13.537882 -1.551014 0.000000 0.000000 0.000000 -2.329697 1.863041 -4.995732 0.068840 0.127911 -4.108240 -1.053690 -2.469920 11.086874 -0.026417 -0.193758 0.012057 -1.205842 -1.077730 12.597866 1.328523 -1.969223 3.255211 0.000000 0.000000 0.000000 0.339313 -0.837867 9.703817 -1.796685 -5.295125 4.027506 -54.939163 -19.441266 15.413075 -165.282313 -83.911183 -172.422620 0.000000 0.000000 0.000000 -4.279715 1.113394 8.714847 30.426645 6.478154 5.582962 49.395511 17.141958 10.259345 -172.334689 70.085678 179.802626 0.000000 0.000000 0.000000 
50.779995 81.005745 -36.420033 -179.767232 -13.501805 -179.881638 -6.308320 0.156572 9.301999 1.794901 -3.352602 -22.241862 8.962782 7.878127 33.034152 1.723613 -9.850553 -9.670448 0.000000 0.000000 0.000000 -2.749808 0.093477 9.974118 -4.201266 5.861985 -26.430730 -1.413250 6.487949 30.506326 16.118099 12.980701 -2.428772 0.000000 0.000000 0.000000 -2.379013 1.669267 -5.304545 0.153748 0.221502 -4.348457 -1.107201 -2.512753 11.124175 0.002628 -0.279209 -0.004027 -1.284219 -1.050492 12.653308 1.208212 -1.866165 3.263220 0.000000 0.000000 0.000000 0.367034 -0.794247 9.641458 -1.890976 -4.901995 4.285780 -54.590741 -19.758767 14.917770 -164.336810 -83.737593 -173.591662 0.000000 0.000000 0.000000 -4.355368 1.305820 8.783038 30.823746 6.671938 5.477591 49.141596 17.415487 10.406755 -172.728736 69.663989 179.700542 0.000000 0.000000 0.000000 
50.936871 81.015114 -37.327080 -179.818459 -13.578793 -179.833307 -6.305414 -0.041348 9.337152 2.076181 -3.147359 -21.655924 8.732231 7.672076 33.082035 1.942261 -10.143481 -9.814376 0.000000 0.000000 0.000000 -2.759961 -0.073382 9.984086 -3.816758 6.053093 -25.735466 -1.472063 6.645970 30.504851 16.064559 12.567038 -3.222584 0.000000 0.000000 0.000000 -2.469655 1.807435 -5.549631 0.284582 0.083404 -4.556666 -1.162470 -2.533145 11.143014 0.013621 -0.232238 0.031482 -1.275604 -0.978203 12.602577 1.120163 -1.900975 3.175880 0.000000 0.000000 0.000000 0.399428 -0.786853 9.607685 -1.817791 -4.726754 4.451162 -54.265440 -20.156274 14.292107 -163.151663 -83.539409 -175.059101 0.000000 0.000000 0.000000 -4.385101 1.303905 8.661687 31.383483 6.719189 5.406920 48.944473 17.880568 10.551353 -173.004184 69.182645 179.710637 0.000000 0.000000 0.000000 
